HIERARCHY
ROOT Hips
{
	OFFSET 0.000000 0.000000 0.000000
	CHANNELS 6 Xposition Yposition Zposition Zrotation Yrotation Xrotation 
	JOINT LHipJoint
	{
		OFFSET 0.000000 0.000000 0.000000
		CHANNELS 3 Zrotation Yrotation Xrotation
		JOINT LeftUpLeg
		{
			OFFSET 1.363060 -1.794630 0.839290
			CHANNELS 3 Zrotation Yrotation Xrotation
			JOINT LeftLeg
			{
				OFFSET 2.448110 -6.726130 0.000000
				CHANNELS 3 Zrotation Yrotation Xrotation
				JOINT LeftFoot
				{
					OFFSET 2.562200 -7.039590 0.000000
					CHANNELS 3 Zrotation Yrotation Xrotation
					JOINT LeftToeBase
					{
						OFFSET 0.157640 -0.433110 2.322550
						CHANNELS 3 Zrotation Yrotation Xrotation
						End Site
						{
							OFFSET 0.000000 0.000000 0.000000
						}
					}
				}
			}
		}
	}
	JOINT RHipJoint
	{
		OFFSET 0.000000 0.000000 0.000000
		CHANNELS 3 Zrotation Yrotation Xrotation
		JOINT RightUpLeg
		{
			OFFSET -1.305520 -1.794630 0.839290
			CHANNELS 3 Zrotation Yrotation Xrotation
			JOINT RightLeg
			{
				OFFSET -2.542530 -6.985550 0.000000
				CHANNELS 3 Zrotation Yrotation Xrotation
				JOINT RightFoot
				{
					OFFSET -2.568260 -7.056230 0.000000
					CHANNELS 3 Zrotation Yrotation Xrotation
					JOINT RightToeBase
					{
						OFFSET -0.164730 -0.452590 2.363150
						CHANNELS 3 Zrotation Yrotation Xrotation
						End Site
						{
							OFFSET 0.000000 0.000000 0.000000
						}
					}
				}
			}
		}
	}
	JOINT LowerBack
	{
		OFFSET 0.000000 0.000000 0.000000
		CHANNELS 3 Zrotation Yrotation Xrotation
		JOINT Spine
		{
			OFFSET 0.028270 2.035590 -0.193380
			CHANNELS 3 Zrotation Yrotation Xrotation
			JOINT Spine1
			{
				OFFSET 0.056720 2.048850 -0.042750
				CHANNELS 3 Zrotation Yrotation Xrotation
				JOINT Neck
				{
					OFFSET 0.000000 0.000000 0.000000
					CHANNELS 3 Zrotation Yrotation Xrotation
					JOINT Neck1
					{
						OFFSET -0.054170 1.746240 0.172020
						CHANNELS 3 Zrotation Yrotation Xrotation
						JOINT Head
						{
							OFFSET 0.104070 1.761360 -0.123970
							CHANNELS 3 Zrotation Yrotation Xrotation
							End Site
							{
								OFFSET 0.000000 0.000000 0.000000
							}
						}
					}
				}
				JOINT LeftShoulder
				{
					OFFSET 0.000000 0.000000 0.000000
					CHANNELS 3 Zrotation Yrotation Xrotation
					JOINT LeftArm
					{
						OFFSET 3.362410 1.200890 -0.311210
						CHANNELS 3 Zrotation Yrotation Xrotation
						JOINT LeftForeArm
						{
							OFFSET 4.983000 -0.000000 -0.000000
							CHANNELS 3 Zrotation Yrotation Xrotation
							JOINT LeftHand
							{
								OFFSET 3.483560 -0.000000 -0.000000
								CHANNELS 3 Zrotation Yrotation Xrotation
								JOINT LeftFingerBase
								{
									OFFSET 0.000000 0.000000 0.000000
									CHANNELS 3 Zrotation Yrotation Xrotation
									JOINT LeftHandIndex1
									{
										OFFSET 0.715260 -0.000000 -0.000000
										CHANNELS 3 Zrotation Yrotation Xrotation
										End Site
										{
											OFFSET 0.000000 0.000000 0.000000
										}
									}
								}
								JOINT LThumb
								{
									OFFSET 0.000000 0.000000 0.000000
									CHANNELS 3 Zrotation Yrotation Xrotation
									End Site
									{
										OFFSET 0.000000 0.000000 0.000000
									}
								}
							}
						}
					}
				}
				JOINT RightShoulder
				{
					OFFSET 0.000000 0.000000 0.000000
					CHANNELS 3 Zrotation Yrotation Xrotation
					JOINT RightArm
					{
						OFFSET -3.136600 1.374050 -0.404650
						CHANNELS 3 Zrotation Yrotation Xrotation
						JOINT RightForeArm
						{
							OFFSET -5.241900 -0.000000 -0.000000
							CHANNELS 3 Zrotation Yrotation Xrotation
							JOINT RightHand
							{
								OFFSET -3.444170 -0.000000 -0.000000
								CHANNELS 3 Zrotation Yrotation Xrotation
								JOINT RightFingerBase
								{
									OFFSET 0.000000 0.000000 0.000000
									CHANNELS 3 Zrotation Yrotation Xrotation
									JOINT RightHandIndex1
									{
										OFFSET -0.622530 -0.000000 -0.000000
										CHANNELS 3 Zrotation Yrotation Xrotation
										End Site
										{
											OFFSET 0.000000 0.000000 0.000000
										}
									}
								}
								JOINT RThumb
								{
									OFFSET 0.000000 0.000000 0.000000
									CHANNELS 3 Zrotation Yrotation Xrotation
									End Site
									{
										OFFSET 0.000000 0.000000 0.000000
									}
								}
							}
						}
					}
				}
			}
		}
	}
}
MOTION
Frames: 9
Frame Time: 0.008333
33.278962 17.609359 5.663823 159.240456 -86.629553 -157.957562 -5.135536 -2.797068 -0.274993 -16.592463 -4.247566 -14.554963 0.367788 9.312051 25.027794 0.556321 0.846821 5.381741 0.133600 2.356200 6.491100 1.088297 2.168307 -2.534140 8.887806 3.680783 -34.674885 -15.629742 -20.388649 78.597988 -40.102860 20.934621 -156.815678 -1.365500 -7.396000 20.894000 -2.167488 -1.161884 5.632850 0.136201 -1.088030 -5.062801 3.276539 -0.982634 -2.369248 -4.339270 -3.827776 -17.011440 7.023464 -4.736979 7.505758 2.905600 -1.978300 8.355300 5.180015 2.835040 -0.022354 -91.657463 -2.723500 40.519490 39.306436 -52.606360 -15.582601 -0.477295 1.824648 -0.031874 10.463770 12.791154 2.099200 -7.125000 0.000000 0.000000 -14.202500 40.677100 1.549400 -3.038356 -3.503754 -2.253942 82.743501 -6.243381 25.982282 -12.238677 25.842758 -3.584113 -0.044864 0.950976 11.891338 -10.545372 -11.445140 2.235300 7.125000 0.000000 0.000000 15.144100 -42.064800 1.125000 
33.188390 17.647811 5.670861 153.058523 -87.207225 -152.127340 -5.085368 -2.836803 -0.230191 -17.159465 -5.009684 -13.193530 0.300306 9.080417 24.476039 0.377971 1.453042 4.950701 0.134900 2.367400 6.522000 1.083510 2.168531 -2.719692 8.365843 3.786373 -38.104023 -14.508375 -20.244462 75.280502 -40.038358 21.093986 -156.490169 -1.471300 -7.665000 21.701200 -2.174047 -1.500678 5.921897 0.129027 -1.525224 -4.963578 3.188552 -1.241726 -2.165561 -4.001055 -3.645551 -16.900924 6.835214 -4.581505 7.463714 2.760500 -1.905100 8.268700 5.179009 2.886265 -0.048993 -91.375374 -4.997015 41.207086 39.269773 -52.517581 -15.551827 -0.473039 1.820666 0.155656 10.437873 12.695520 2.077500 -7.125000 0.000000 0.000000 -14.201300 40.586700 1.581700 -3.003175 -3.644248 -2.248098 82.578928 -6.699495 23.195849 -11.307144 24.542670 -3.180542 -0.022511 0.949262 13.186780 -10.490739 -11.447524 2.223500 7.125000 0.000000 0.000000 15.190300 -42.059500 1.130700 
33.098430 17.685345 5.674532 146.107115 -87.544867 -145.640542 -5.020424 -2.746943 -0.074977 -17.710802 -5.351470 -11.958332 0.203979 8.838859 23.816805 0.276852 1.815124 4.728866 0.130300 2.326600 6.409100 1.084578 2.262909 -2.905562 7.840377 4.040099 -41.370555 -13.549746 -20.026954 72.344865 -39.805035 20.554876 -155.775100 -1.605700 -7.991400 22.688000 -4.030995 -1.752954 6.826869 0.839727 -1.999203 -5.002376 7.031576 -1.380396 -2.584079 -5.708515 -3.456719 -16.767253 6.098306 -3.771337 7.565733 2.688000 -1.700900 8.270600 5.546298 2.867710 0.023763 -94.136273 -6.331063 41.274139 40.058712 -53.234414 -15.863909 -0.548475 1.977413 0.714473 10.246549 13.166367 2.118300 -7.125000 0.000000 0.000000 -14.359300 40.887700 1.490900 -2.747472 -3.653761 -2.379120 78.852461 -7.588334 22.062506 -10.787734 23.724273 -2.972783 -0.021960 0.968980 13.076625 -9.898513 -11.361755 2.080900 7.125000 0.000000 0.000000 15.686700 -41.936100 1.218800 
33.000922 17.715842 5.667087 137.556608 -88.210425 -137.621848 -4.754588 -2.701473 0.002115 -18.114371 -5.470514 -10.631815 0.123708 8.589715 23.227954 0.288481 1.747135 4.619130 0.135900 2.375700 6.545300 1.226579 2.308361 -3.061282 7.427231 4.134253 -44.461866 -12.860345 -19.901479 70.267729 -39.655406 20.393494 -155.156145 -1.721300 -8.259700 23.505600 -2.772873 -2.441354 7.675352 0.532920 -2.873801 -4.977572 5.019551 -1.897081 -2.885970 -4.728314 -3.010224 -16.988880 6.501188 -3.484359 7.757238 2.797700 -1.461600 8.403400 5.280246 2.879209 -0.072506 -91.934755 -7.649816 41.098207 40.602755 -53.217264 -16.337638 -0.515905 1.871088 0.537698 10.374607 12.898330 2.105200 -7.125000 0.000000 0.000000 -14.244800 40.737000 1.532700 -2.813497 -3.730286 -2.363875 80.076308 -8.445294 20.537322 -10.283777 23.046898 -2.779836 -0.012876 0.943898 13.863793 -9.552605 -10.854074 1.919700 7.125000 0.000000 0.000000 15.836100 -41.383300 1.453500 
32.904026 17.747359 5.662089 128.622251 -88.647657 -129.185222 -4.505586 -2.527497 0.129413 -18.505580 -5.701710 -9.380825 0.037377 8.378713 22.637782 0.265475 1.825196 4.478767 0.136700 2.382900 6.565200 1.346950 2.469046 -3.255171 7.018423 4.315230 -47.539588 -12.138892 -19.686040 68.081160 -39.530999 20.259631 -154.639317 -1.849800 -8.545900 24.384700 -2.701469 -2.840119 8.404306 0.608659 -3.434509 -4.932233 5.264187 -2.166406 -3.000018 -4.699272 -2.749068 -17.154080 6.443392 -3.131054 7.852174 2.788600 -1.295900 8.469600 5.260601 2.925786 -0.098820 -91.572801 -9.159783 41.208156 41.206823 -53.456494 -16.724001 -0.524647 1.863684 0.631337 10.356423 12.888723 2.103600 -7.125000 0.000000 0.000000 -14.250100 40.735000 1.534000 -2.762027 -3.773622 -2.389389 79.423200 -9.197641 18.955698 -9.843224 22.412429 -2.618864 -0.011141 0.937604 14.285364 -9.107763 -10.624093 1.789300 7.125000 0.000000 0.000000 16.155900 -41.110300 1.596800 
32.803866 17.776734 5.653827 118.824958 -89.014636 -119.888380 -4.254281 -2.273912 0.286067 -18.795856 -5.873853 -8.196854 -0.051146 8.194654 22.065962 0.270276 1.813326 4.383587 0.136300 2.379900 6.556800 1.455413 2.694078 -3.464854 6.672528 4.547339 -50.508073 -11.540541 -19.462280 66.251316 -39.418538 20.150443 -154.150324 -1.970800 -8.805000 25.187100 -2.613346 -3.193081 9.104766 0.684743 -3.937526 -4.883448 5.490110 -2.389581 -3.089565 -4.647709 -2.512024 -17.315110 6.402608 -2.817629 7.930850 2.777700 -1.146500 8.529600 5.236841 2.989921 -0.121623 -91.127796 -10.549166 41.310038 41.889161 -53.725189 -17.162056 -0.533128 1.851595 0.705187 10.333807 12.860613 2.098400 -7.125000 0.000000 0.000000 -14.256600 40.719000 1.540500 -2.714287 -3.796201 -2.412411 78.762307 -10.029511 17.619758 -9.520052 21.964030 -2.511617 -0.015080 0.933120 14.492232 -8.628083 -10.421704 1.659600 7.125000 0.000000 0.000000 16.513700 -40.863300 1.738300 
32.701157 17.803558 5.644036 109.461147 -89.278314 -110.984150 -4.057796 -1.989821 0.459216 -18.990756 -5.998795 -7.110366 -0.136768 8.036386 21.525784 0.279996 1.790671 4.296329 0.134800 2.366300 6.519100 1.501916 2.940041 -3.682760 6.366406 4.908541 -53.410250 -11.051522 -19.246659 64.731678 -39.295880 19.972757 -153.640889 -2.064900 -9.000000 25.795200 -2.507829 -3.489394 9.701057 0.744113 -4.360540 -4.834935 5.602880 -2.566393 -3.155082 -4.533028 -2.292211 -17.360926 6.377633 -2.551081 7.962015 2.758300 -1.016100 8.541100 5.204270 3.063765 -0.139932 -90.552830 -11.815093 41.423877 42.614084 -53.999495 -17.631473 -0.540562 1.831981 0.743152 10.291473 12.808108 2.085600 -7.125000 0.000000 0.000000 -14.278000 40.684400 1.555400 -2.673336 -3.809782 -2.431019 78.163351 -10.955197 16.488847 -9.277020 21.654560 -2.440450 -0.022056 0.930759 14.587640 -8.164667 -10.254159 1.541500 7.125000 0.000000 0.000000 16.867600 -40.654500 1.867900 
32.593857 17.829057 5.632612 99.401066 -89.484455 -101.332223 -3.925110 -1.674682 0.650347 -19.086792 -6.125582 -6.110235 -0.220694 7.901911 21.012943 0.294200 1.758095 4.209248 0.131300 2.335600 6.434100 1.482520 3.204085 -3.903033 6.108044 5.337826 -56.238968 -10.673662 -19.049746 63.535877 -39.166421 19.771947 -153.104158 -2.152000 -9.175800 26.346800 -2.525807 -3.724838 10.177381 0.842582 -4.707787 -4.791995 5.898906 -2.692284 -3.185618 -4.507587 -2.109019 -17.299929 6.318205 -2.307029 7.956724 2.728000 -0.907500 8.510100 5.195614 3.148861 -0.146027 -90.109936 -12.965913 41.576744 43.378462 -54.305187 -18.114118 -0.551945 1.816997 0.774815 10.210394 12.748530 2.063900 -7.125000 0.000000 0.000000 -14.326500 40.635600 1.578600 -2.625206 -3.814925 -2.453970 77.379873 -11.984551 15.629045 -9.120500 21.495459 -2.406713 -0.031329 0.934109 14.526353 -7.758594 -10.151225 1.446500 7.125000 0.000000 0.000000 17.191700 -40.519300 1.965700 
32.483192 17.853638 5.620475 88.285437 -89.612072 -90.557786 -3.870741 -1.347243 0.853906 -19.130423 -6.275902 -5.203975 -0.300392 7.791714 20.536541 0.301378 1.754431 4.098058 0.126100 2.289500 6.306500 1.386354 3.469520 -4.118198 5.855515 5.819978 -59.015399 -10.394337 -18.878126 62.632261 -39.035106 19.571868 -152.551452 -2.222100 -9.314100 26.783000 -2.587264 -3.925886 10.598120 0.945062 -5.014250 -4.773332 6.191790 -2.790117 -3.280585 -4.492511 -1.941365 -17.179323 6.255543 -2.083511 7.959507 2.695700 -0.811000 8.475500 5.187506 3.231145 -0.150920 -89.642590 -13.968752 41.728618 44.162042 -54.608872 -18.606701 -0.563766 1.798794 0.774431 10.098929 12.662982 2.032000 -7.125000 0.000000 0.000000 -14.395900 40.561700 1.613500 -2.575967 -3.808664 -2.484160 76.554075 -13.137323 15.024199 -9.028589 21.450379 -2.399494 -0.039020 0.941121 14.407772 -7.466651 -10.061300 1.377600 7.125000 0.000000 0.000000 17.421800 -40.411700 2.041900 
